<svg xmlns="http://www.w3.org/2000/svg" width="512" height="512" id="facebook">
  <path fill="#1A1A1A" fill-rule="evenodd" d="M434.478 16H77.519C43.718 16 16 43.719 16 77.521v356.957C16 468.282 43.718 496 77.519 496h356.959C468.281 496 496 468.282 496 434.479V77.521C496 43.719 468.281 16 434.478 16zM327.203 230.875 324.906 256H277v160h-64V256h-32v-64h32v-29.038c0-26.212 12.524-67.166 67.461-67.166l49.539.225V151h-36.003c-5.848 0-13.997 2.812-13.997 15.284V192h50.743l-3.54 38.875z" clip-rule="evenodd"></path>
</svg>
