<svg xmlns="http://www.w3.org/2000/svg" width="512" height="512" id="google-plus">
  <path fill="#1A1A1A" fill-rule="evenodd" d="M434.478 16H77.519C43.718 16 16 43.719 16 77.521v356.957C16 468.282 43.718 496 77.519 496h356.959C468.281 496 496 468.282 496 434.479V77.521C496 43.719 468.281 16 434.478 16zM268.957 329.682c-15.917 16.954-36.245 25.163-59.025 27.706-46.66 5.097-90.335-21.354-107.235-64.79-6.982-17.901-8.43-36.456-5.379-53.937 7.168-40.892 39.114-75.886 83.572-83.161 30.91-5.063 58.504 2.398 82.528 22.691.874.736 1.835 1.409 2.503 1.932-10.251 10.354-19.867 20.031-29.752 30.02-7.284-6.341-15.707-11.128-25.574-13.271-27.558-6.018-55.412 9.004-66.665 33.761-1.926 4.301-3.453 8.871-4.31 13.693-6.043 34.114 15.142 65.688 49.192 71.26 27.398 4.49 52.968-7.601 61.325-32.349.624-1.857 1.081-4.236 1.8-6.236h-54.452c0-14-.072-26.502.16-39.29 0-.853 2.165-2.38 3.369-2.415 6.338-.252 12.704-.184 19.056-.184 22.214 0 44.446.14 66.676-.157 5.082-.071 7.316.96 7.944 6.51 3.729 33.044-2.296 63.248-25.733 88.217zM416 244.289V264h-35v35h-26v-34.91c-6 0-10.969.08-16.223-.019-6.303-.127-12.532-.409-18.818-.649-.279-6.435-.551-12.805-.823-19.241-.076-1.788.025-3.181.025-6.181H355v-35.734c8 0 15.948-.107 23.732.199.856.017 2.219 2.548 2.259 3.932.214 8.512.009 17.025.009 25.556V238h35v6.289z" clip-rule="evenodd"></path>
</svg>
